<svg width="4096" height="4096" viewBox="0 0 4096 4096" fill="none" xmlns="http://www.w3.org/2000/svg">
<path d="M639.72 3479.52C639.72 3426.24 645 3381.36 655.56 3344.88C666.6 3307.92 685.8 3280.08 713.16 3261.36C740.52 3242.64 778.92 3233.28 828.36 3233.28C866.76 3233.28 898.2 3238.8 922.68 3249.84C947.64 3260.4 967.08 3276 981 3296.64C994.92 3317.28 1004.52 3342.96 1009.8 3373.68C1015.08 3404.4 1017.72 3439.68 1017.72 3479.52C1017.72 3519.36 1015.08 3554.64 1009.8 3585.36C1004.52 3615.6 994.92 3641.28 981 3662.4C967.08 3683.04 947.64 3698.64 922.68 3709.2C898.2 3719.76 866.76 3725.04 828.36 3725.04C778.92 3725.04 740.52 3715.68 713.16 3696.96C685.8 3678.24 666.6 3650.64 655.56 3614.16C645 3577.68 639.72 3532.8 639.72 3479.52ZM694.44 3479.52C694.44 3531.84 699 3572.64 708.12 3601.92C717.72 3630.72 732.12 3650.88 751.32 3662.4C771 3673.92 796.2 3679.68 826.92 3679.68C858.12 3679.68 883.56 3673.92 903.24 3662.4C923.4 3650.88 938.52 3630.72 948.6 3601.92C958.68 3573.12 963.72 3532.32 963.72 3479.52C963.72 3426.72 958.68 3385.68 948.6 3356.4C938.52 3327.12 923.4 3306.72 903.24 3295.2C883.56 3283.2 858.12 3277.2 826.92 3277.2C796.2 3277.2 771 3283.2 751.32 3295.2C732.12 3307.2 717.72 3327.84 708.12 3357.12C699 3385.92 694.44 3426.72 694.44 3479.52ZM1173.19 3712.8C1159.75 3685.92 1147.27 3657.84 1135.75 3628.56C1124.23 3598.8 1114.15 3569.52 1105.51 3540.72C1096.87 3511.44 1089.43 3484.32 1083.19 3459.36C1077.43 3433.92 1073.11 3411.84 1070.23 3393.12C1069.27 3388.8 1069.03 3385.68 1069.51 3383.76C1070.47 3381.36 1072.15 3380.16 1074.55 3380.16H1116.31C1120.63 3380.16 1123.27 3382.56 1124.23 3387.36C1126.63 3401.76 1129.75 3419.04 1133.59 3439.2C1137.91 3458.88 1142.95 3479.28 1148.71 3500.4C1154.47 3521.52 1160.47 3542.16 1166.71 3562.32C1172.95 3582 1178.71 3599.76 1183.99 3615.6C1189.75 3630.96 1195.03 3642.72 1199.83 3650.88C1200.79 3653.76 1201.99 3654.96 1203.43 3654.48C1204.87 3654 1205.83 3653.04 1206.31 3651.6C1212.07 3642.48 1217.59 3630.48 1222.87 3615.6C1228.15 3600.72 1232.95 3585.12 1237.27 3568.8C1241.59 3552 1244.95 3536.4 1247.35 3522C1250.23 3507.6 1251.67 3496.32 1251.67 3488.16C1251.67 3482.4 1251.43 3474.96 1250.95 3465.84C1250.95 3456.24 1250.95 3446.4 1250.95 3436.32C1250.95 3426.24 1250.71 3416.88 1250.23 3408.24C1250.23 3399.12 1250.23 3392.16 1250.23 3387.36C1250.23 3382.56 1252.39 3380.16 1256.71 3380.16H1297.75C1299.67 3380.16 1301.35 3380.64 1302.79 3381.6C1304.23 3382.56 1304.95 3384.48 1304.95 3387.36C1304.95 3397.92 1305.19 3411.84 1305.67 3429.12C1306.15 3446.4 1306.63 3467.52 1307.11 3492.48C1307.59 3499.2 1309.03 3508.32 1311.43 3519.84C1314.31 3531.36 1317.91 3543.6 1322.23 3556.56C1326.55 3569.52 1330.87 3582.48 1335.19 3595.44C1339.99 3608.4 1344.31 3619.92 1348.15 3630C1352.47 3640.08 1356.07 3647.52 1358.95 3652.32C1360.87 3656.64 1363.03 3656.64 1365.43 3652.32C1370.23 3643.2 1375.51 3630.72 1381.27 3614.88C1387.03 3599.04 1392.79 3581.28 1398.55 3561.6C1404.79 3541.92 1410.55 3521.76 1415.83 3501.12C1421.11 3480 1425.67 3459.6 1429.51 3439.92C1433.83 3420.24 1437.19 3402.96 1439.59 3388.08C1440.07 3382.8 1443.19 3380.16 1448.95 3380.16H1485.67C1488.55 3380.16 1490.23 3381.12 1490.71 3383.04C1491.67 3384.96 1491.67 3387.84 1490.71 3391.68C1487.83 3411.84 1483.03 3435.6 1476.31 3462.96C1470.07 3489.84 1462.39 3518.4 1453.27 3548.64C1444.63 3578.4 1434.55 3607.68 1423.03 3636.48C1411.99 3664.8 1400.47 3690.24 1388.47 3712.8C1387.03 3715.68 1385.59 3717.6 1384.15 3718.56C1382.71 3719.52 1381.03 3720 1379.11 3720H1344.55C1342.63 3720 1340.95 3719.76 1339.51 3719.28C1338.55 3718.32 1337.35 3716.64 1335.91 3714.24C1329.67 3703.2 1323.19 3690.48 1316.47 3676.08C1310.23 3661.2 1304.23 3646.8 1298.47 3632.88C1293.19 3618.48 1289.11 3606 1286.23 3595.44C1283.35 3586.32 1279.75 3586.32 1275.43 3595.44C1273.51 3603.12 1270.87 3611.52 1267.51 3620.64C1264.15 3629.76 1260.55 3638.88 1256.71 3648C1252.87 3657.12 1249.03 3665.76 1245.19 3673.92C1241.83 3681.12 1238.23 3688.32 1234.39 3695.52C1231.03 3702.72 1228.15 3708.96 1225.75 3714.24C1224.79 3716.16 1223.35 3717.6 1221.43 3718.56C1219.99 3719.52 1218.31 3720 1216.39 3720H1183.27C1180.39 3720 1178.47 3719.76 1177.51 3719.28C1176.55 3718.32 1175.11 3716.16 1173.19 3712.8ZM1554.05 3714.96V3215.28C1554.05 3211.92 1555.73 3210.24 1559.09 3210.24H1599.41C1603.25 3210.24 1605.17 3211.92 1605.17 3215.28V3714.96C1605.17 3718.32 1603.25 3720 1599.41 3720H1559.09C1555.73 3720 1554.05 3718.32 1554.05 3714.96ZM1829.89 3724.32C1791.01 3724.32 1760.77 3716.88 1739.17 3702C1717.57 3687.12 1702.45 3666.48 1693.81 3640.08C1685.65 3613.68 1681.57 3583.44 1681.57 3549.36C1681.57 3515.76 1686.13 3486 1695.25 3460.08C1704.85 3433.68 1720.45 3413.04 1742.05 3398.16C1763.65 3383.28 1792.93 3375.84 1829.89 3375.84C1867.33 3375.84 1896.85 3383.28 1918.45 3398.16C1940.05 3413.04 1955.41 3433.68 1964.53 3460.08C1974.13 3486 1978.93 3515.76 1978.93 3549.36C1978.93 3582.96 1974.61 3612.96 1965.97 3639.36C1957.81 3665.76 1942.93 3686.64 1921.33 3702C1900.21 3716.88 1869.73 3724.32 1829.89 3724.32ZM1829.89 3683.28C1865.89 3683.28 1890.85 3671.76 1904.77 3648.72C1919.17 3625.2 1926.37 3592.32 1926.37 3550.08C1926.37 3507.84 1918.69 3475.44 1903.33 3452.88C1887.97 3430.32 1863.49 3419.04 1829.89 3419.04C1796.77 3419.04 1772.29 3430.32 1756.45 3452.88C1741.09 3475.44 1733.41 3507.84 1733.41 3550.08C1733.41 3592.8 1740.61 3625.68 1755.01 3648.72C1769.41 3671.76 1794.37 3683.28 1829.89 3683.28ZM2159.76 3376.56C2189.04 3376.56 2213.76 3380.4 2233.92 3388.08C2236.32 3389.52 2238 3390.72 2238.96 3391.68C2240.4 3392.64 2240.88 3394.32 2240.4 3396.72L2233.2 3424.08C2232.72 3426.48 2231.76 3427.92 2230.32 3428.4C2229.36 3428.88 2227.68 3428.64 2225.28 3427.68C2216.64 3424.8 2207.28 3422.88 2197.2 3421.92C2187.12 3420.48 2177.76 3419.76 2169.12 3419.76C2161.44 3419.76 2153.52 3420.48 2145.36 3421.92C2137.2 3423.36 2129.76 3425.04 2123.04 3426.96C2116.8 3428.4 2112 3429.84 2108.64 3431.28C2106.72 3432.72 2104.32 3434.4 2101.44 3436.32C2098.56 3438.24 2097.12 3442.56 2097.12 3449.28V3712.08C2097.12 3715.44 2096.64 3717.6 2095.68 3718.56C2094.72 3719.52 2093.04 3720 2090.64 3720H2051.76C2050.32 3720 2048.88 3719.52 2047.44 3718.56C2046.48 3717.6 2046 3715.92 2046 3713.52V3419.04C2046 3411.84 2046.96 3407.04 2048.88 3404.64C2050.8 3402.24 2053.68 3400.08 2057.52 3398.16C2071.92 3391.44 2088.72 3386.16 2107.92 3382.32C2127.12 3378.48 2144.4 3376.56 2159.76 3376.56ZM2346.35 3286.56C2346.35 3295.2 2344.43 3301.92 2340.59 3306.72C2337.23 3311.04 2329.55 3313.2 2317.55 3313.2C2306.03 3313.2 2298.11 3311.04 2293.79 3306.72C2289.95 3301.92 2288.03 3295.2 2288.03 3286.56C2288.03 3278.4 2289.95 3272.16 2293.79 3267.84C2298.11 3263.04 2306.03 3260.64 2317.55 3260.64C2330.03 3260.64 2337.95 3263.04 2341.31 3267.84C2344.67 3272.16 2346.35 3278.4 2346.35 3286.56ZM2343.47 3714.96C2343.47 3718.32 2341.55 3720 2337.71 3720H2297.39C2294.03 3720 2292.35 3718.32 2292.35 3714.96V3385.2C2292.35 3381.84 2294.03 3380.16 2297.39 3380.16H2337.71C2341.55 3380.16 2343.47 3381.84 2343.47 3385.2V3714.96ZM2548.78 3720C2519.02 3720 2496.94 3713.76 2482.54 3701.28C2468.14 3688.32 2458.78 3670.32 2454.46 3647.28C2450.14 3627.12 2447.98 3606 2447.98 3583.92C2447.98 3561.36 2447.98 3538.32 2447.98 3514.8C2447.98 3498.48 2447.98 3482.88 2447.98 3468C2448.46 3453.12 2449.18 3438 2450.14 3422.64C2450.14 3418.32 2448.22 3416.16 2444.38 3416.16H2407.66C2405.74 3416.16 2404.3 3415.68 2403.34 3414.72C2402.38 3413.76 2401.9 3412.32 2401.9 3410.4V3385.92C2401.9 3384 2402.38 3382.56 2403.34 3381.6C2404.3 3380.64 2405.98 3380.16 2408.38 3380.16H2445.1C2447.5 3380.16 2449.18 3379.68 2450.14 3378.72C2451.1 3377.28 2451.58 3374.88 2451.58 3371.52L2455.18 3310.32C2455.18 3306.96 2456.62 3305.28 2459.5 3305.28H2499.82C2501.26 3305.28 2502.46 3305.76 2503.42 3306.72C2504.86 3307.68 2505.58 3308.88 2505.58 3310.32L2502.7 3371.52C2502.22 3374.88 2502.22 3377.28 2502.7 3378.72C2503.66 3379.68 2505.34 3380.16 2507.74 3380.16H2591.98C2594.38 3380.16 2595.82 3380.64 2596.3 3381.6C2597.26 3382.08 2597.74 3383.76 2597.74 3386.64V3409.68C2597.74 3411.6 2597.26 3413.28 2596.3 3414.72C2595.34 3415.68 2593.66 3416.16 2591.26 3416.16H2507.74C2505.82 3416.16 2504.14 3416.88 2502.7 3418.32C2501.26 3419.28 2500.54 3421.2 2500.54 3424.08C2500.06 3439.44 2499.58 3455.04 2499.1 3470.88C2498.62 3486.72 2498.38 3502.8 2498.38 3519.12C2498.38 3538.8 2498.38 3558.96 2498.38 3579.6C2498.86 3599.76 2501.26 3619.44 2505.58 3638.64C2508.46 3652.08 2513.74 3662.16 2521.42 3668.88C2529.58 3675.6 2542.06 3678.96 2558.86 3678.96C2565.58 3678.96 2572.3 3678.24 2579.02 3676.8C2585.74 3674.88 2592.46 3672.96 2599.18 3671.04C2602.54 3669.12 2604.7 3668.4 2605.66 3668.88C2606.62 3669.36 2607.58 3671.04 2608.54 3673.92L2616.46 3697.68C2617.42 3700.56 2616.94 3702.72 2615.02 3704.16C2613.58 3705.6 2610.46 3707.52 2605.66 3709.92C2600.38 3711.84 2593.9 3713.76 2586.22 3715.68C2579.02 3717.12 2572.06 3718.32 2565.34 3719.28C2558.62 3719.76 2553.1 3720 2548.78 3720ZM2662.64 3714.96C2662.64 3631.44 2662.64 3548.16 2662.64 3465.12C2662.64 3382.08 2662.64 3298.8 2662.64 3215.28C2662.64 3211.92 2664.56 3210.24 2668.4 3210.24C2675.12 3210.24 2681.84 3210.24 2688.56 3210.24C2695.76 3210.24 2702.48 3210.24 2708.72 3210.24C2712.56 3210.24 2714.48 3211.92 2714.48 3215.28C2714.48 3243.12 2714.48 3271.2 2714.48 3299.52C2714.48 3327.36 2714.48 3354.96 2714.48 3382.32C2714.48 3385.68 2714.96 3387.84 2715.92 3388.8C2717.36 3389.76 2719.52 3389.76 2722.4 3388.8C2732.96 3385.92 2744.72 3383.28 2757.68 3380.88C2771.12 3378 2784.56 3376.56 2798 3376.56C2815.76 3376.56 2832.08 3379.44 2846.96 3385.2C2862.32 3390.48 2875.52 3399.6 2886.56 3412.56C2897.6 3425.52 2906.24 3443.28 2912.48 3465.84C2918.72 3487.92 2922.08 3516 2922.56 3550.08C2922.56 3568.8 2922.08 3588 2921.12 3607.68C2920.64 3627.36 2919.68 3646.56 2918.24 3665.28C2916.8 3683.52 2915.12 3700.08 2913.2 3714.96C2913.2 3716.88 2912.48 3718.32 2911.04 3719.28C2909.6 3719.76 2907.44 3720 2904.56 3720C2898.8 3720 2893.04 3720 2887.28 3720C2882 3720 2876.48 3720 2870.72 3720C2866.4 3720 2863.76 3719.52 2862.8 3718.56C2862.32 3717.6 2862.56 3714.72 2863.52 3709.92C2865.92 3687.84 2867.6 3664.08 2868.56 3638.64C2869.52 3613.2 2870.24 3588.24 2870.72 3563.76C2870.72 3535.92 2868.56 3512.64 2864.24 3493.92C2860.4 3474.72 2854.64 3459.6 2846.96 3448.56C2839.76 3437.52 2831.12 3429.6 2821.04 3424.8C2810.96 3420 2799.92 3417.6 2787.92 3417.6C2779.28 3417.6 2769.2 3418.56 2757.68 3420.48C2746.64 3422.4 2736.08 3424.56 2726 3426.96C2722.64 3427.92 2719.76 3429.6 2717.36 3432C2715.44 3434.4 2714.48 3438.48 2714.48 3444.24V3714.96C2714.48 3718.32 2712.56 3720 2708.72 3720H2668.4C2664.56 3720 2662.64 3718.32 2662.64 3714.96ZM3011.06 3720C3007.22 3720 3005.3 3718.08 3005.3 3714.24V3416.88C3005.3 3410.64 3006.26 3406.08 3008.18 3403.2C3010.58 3400.32 3014.18 3397.92 3018.98 3396C3025.22 3393.6 3033.62 3390.96 3044.18 3388.08C3055.22 3385.2 3066.98 3382.8 3079.46 3380.88C3092.42 3378.48 3104.42 3377.28 3115.46 3377.28C3142.82 3377.28 3164.9 3381.6 3181.7 3390.24C3198.98 3398.4 3212.9 3409.68 3223.46 3424.08C3230.18 3414 3238.58 3405.6 3248.66 3398.88C3259.22 3392.16 3270.26 3386.88 3281.78 3383.04C3293.78 3379.2 3305.54 3377.28 3317.06 3377.28C3352.58 3377.28 3379.94 3384.48 3399.14 3398.88C3418.82 3413.28 3432.5 3432.72 3440.18 3457.2C3447.86 3481.2 3451.7 3508.32 3451.7 3538.56C3451.7 3563.04 3451.22 3586.56 3450.26 3609.12C3449.3 3631.2 3448.1 3651.12 3446.66 3668.88C3445.7 3686.64 3444.5 3701.76 3443.06 3714.24C3443.06 3716.64 3442.58 3718.32 3441.62 3719.28C3440.66 3719.76 3439.22 3720 3437.3 3720H3398.42C3396.02 3720 3394.34 3719.52 3393.38 3718.56C3392.9 3717.12 3392.66 3714.96 3392.66 3712.08C3393.62 3703.44 3394.34 3689.76 3394.82 3671.04C3395.78 3651.84 3396.5 3630.24 3396.98 3606.24C3397.94 3582.24 3398.42 3558.72 3398.42 3535.68C3398.42 3522.24 3396.98 3508.8 3394.1 3495.36C3391.7 3481.44 3387.38 3468.96 3381.14 3457.92C3374.9 3446.4 3366.5 3437.28 3355.94 3430.56C3345.38 3423.36 3332.18 3419.76 3316.34 3419.76C3297.62 3419.76 3282.26 3424.8 3270.26 3434.88C3258.74 3444.48 3252.98 3458.16 3252.98 3475.92C3252.98 3500.88 3252.98 3523.68 3252.98 3544.32C3253.46 3564.96 3253.7 3584.4 3253.7 3602.64C3253.7 3620.4 3253.46 3638.16 3252.98 3655.92C3252.98 3673.68 3252.98 3692.64 3252.98 3712.8C3252.98 3717.6 3250.58 3720 3245.78 3720H3207.62C3203.78 3720 3201.86 3718.08 3201.86 3714.24V3537.84C3201.86 3514.32 3199.22 3493.68 3193.94 3475.92C3188.66 3458.16 3179.78 3444.48 3167.3 3434.88C3155.3 3424.8 3138.26 3419.76 3116.18 3419.76C3107.06 3419.76 3098.42 3420.72 3090.26 3422.64C3082.1 3424.08 3074.66 3426 3067.94 3428.4C3060.26 3431.28 3056.42 3436.8 3056.42 3444.96V3713.52C3056.42 3717.84 3054.5 3720 3050.66 3720H3011.06Z" fill="url(#paint0_linear_44_389)"/>
<circle cx="2047" cy="2651" r="55" stroke="url(#paint1_linear_44_389)" stroke-width="40"/>
<line x1="2047" y1="2586" x2="2047" y2="1739" stroke="url(#paint2_linear_44_389)" stroke-width="60" stroke-linecap="round"/>
<path d="M3035.41 482.353C2642.59 464.671 2358.91 556.853 2318.91 565.353" stroke="url(#paint3_linear_44_389)" stroke-width="60" stroke-linecap="round"/>
<path d="M2753.89 2436.87C2538.58 2347.02 2427.17 2161.69 2423.39 1868.37" stroke="url(#paint4_linear_44_389)" stroke-width="60" stroke-linecap="round"/>
<path d="M2598.01 1653.13L2585.75 1625.75L2640.5 1601.22L2652.77 1628.6L2598.01 1653.13ZM2060.72 3131.48C2045.75 3138.57 2027.86 3132.17 2020.77 3117.2C2013.68 3102.22 2020.08 3084.33 2035.05 3077.25L2060.72 3131.48ZM2625.39 1640.86L2652.77 1628.6C2817.88 1997.14 2857.05 2287.42 2756.98 2530.61C2657.2 2773.12 2422.31 2960.33 2060.72 3131.48L2047.89 3104.36L2035.05 3077.25C2392.75 2907.94 2610.44 2729.07 2701.49 2507.78C2792.27 2287.16 2760.54 2015.91 2598.01 1653.13L2625.39 1640.86Z" fill="url(#paint5_linear_44_389)"/>
<path d="M2859.92 1550.15L2849.12 1522.16L2905.1 1500.57L2915.9 1528.55L2859.92 1550.15ZM2415.38 3065.66C2400.57 3073.1 2382.54 3067.13 2375.1 3052.32C2367.66 3037.52 2373.63 3019.49 2388.44 3012.05L2415.38 3065.66ZM2887.91 1539.35L2915.9 1528.55C3056.89 1894.04 3109.1 2191.01 3034.94 2441.85C2960.36 2694.13 2760.37 2892.31 2415.38 3065.66L2401.91 3038.85L2388.44 3012.05C2726.11 2842.38 2909.47 2654.64 2977.41 2424.84C3045.77 2193.6 2999.64 1912.34 2859.92 1550.15L2887.91 1539.35Z" fill="url(#paint6_linear_44_389)"/>
<circle cx="300" cy="300" r="270" transform="matrix(-1 0 0 1 2847.89 777.361)" stroke="url(#paint7_linear_44_389)" stroke-width="60"/>
<mask id="path-9-inside-1_44_389" fill="white">
<path d="M2048.04 1452.35C2177.4 1220.66 2234.9 1102.5 2120.24 985.353H2170.24C2291.06 1147.93 2201.28 1256.82 2048.04 1452.35Z"/>
</mask>
<path d="M2120.24 985.353V925.353H1977.55L2077.36 1027.32L2120.24 985.353ZM2048.04 1452.35L1995.65 1423.1L2095.27 1489.36L2048.04 1452.35ZM2170.24 985.353L2218.4 949.564L2200.4 925.353H2170.24V985.353ZM2120.24 985.353L2077.36 1027.32C2100.62 1051.08 2112.31 1071.91 2117.74 1091.31C2123.17 1110.75 2123.61 1133.42 2117.07 1162.91C2103.16 1225.67 2061.68 1304.83 1995.65 1423.1L2048.04 1452.35L2100.43 1481.6C2163.75 1368.18 2215.71 1272.41 2234.23 1188.88C2243.9 1145.23 2245.3 1101.91 2233.31 1059.01C2221.31 1016.07 2197.19 978.195 2163.12 943.383L2120.24 985.353ZM2048.04 1452.35L2095.27 1489.36C2169.13 1395.11 2237.65 1310.26 2268.22 1227.22C2284.39 1183.28 2291.07 1137.61 2282.81 1089.29C2274.63 1041.48 2252.58 995.565 2218.4 949.564L2170.24 985.353L2122.08 1021.14C2148.3 1056.43 2160.34 1085.09 2164.52 1109.53C2168.62 1133.46 2165.93 1157.72 2155.61 1185.77C2133.18 1246.7 2080.19 1314.06 2000.82 1415.34L2048.04 1452.35ZM2170.24 985.353V925.353H2120.24V985.353V1045.35H2170.24V985.353Z" fill="url(#paint8_linear_44_389)" mask="url(#path-9-inside-1_44_389)"/>
<path d="M2250.15 1341.83C2284.52 1382.27 2326.59 1415.48 2373.93 1439.53C2421.27 1463.58 2472.92 1477.98 2525.89 1481.91C2578.86 1485.83 2632.07 1479.19 2682.44 1462.37C2732.82 1445.56 2779.34 1418.91 2819.3 1383.97C2859.26 1349.04 2891.86 1306.51 2915.21 1258.87C2938.56 1211.24 2952.19 1159.44 2955.31 1106.49C2958.43 1053.54 2950.97 1000.51 2933.38 950.464C2915.78 900.422 2888.4 854.372 2852.81 814.997" stroke="url(#paint9_linear_44_389)" stroke-width="40"/>
<path d="M2361.51 1589.49C2475.16 1630.85 2599.35 1633.24 2714.51 1596.26C2829.67 1559.29 2929.26 1485.06 2997.59 1385.26C3065.93 1285.46 3099.12 1165.77 3091.95 1045.03C3084.77 924.293 3037.64 809.372 2957.97 718.367" stroke="url(#paint10_linear_44_389)" stroke-width="60"/>
<circle cx="88" cy="88" r="88" transform="matrix(-1 0 0 1 2696.09 929.361)" fill="url(#paint11_linear_44_389)"/>
<path d="M2311 947.5C2522.38 565.986 3411.42 755.97 3308.41 320.352" stroke="url(#paint12_linear_44_389)" stroke-width="60" stroke-linecap="round"/>
<path d="M2048.05 1129.85C2176.52 331.196 2576.62 854.866 3308.41 320.353" stroke="url(#paint13_linear_44_389)" stroke-width="60" stroke-linecap="round"/>
<path d="M2248 1677L2248 2205" stroke="url(#paint14_linear_44_389)" stroke-width="60" stroke-linecap="round"/>
<path d="M2356 2439L2356 2294" stroke="url(#paint15_linear_44_389)" stroke-width="60" stroke-linecap="round"/>
<path d="M2355.89 2293.86L2248 2205.5" stroke="url(#paint16_linear_44_389)" stroke-width="60" stroke-linecap="round"/>
<circle cx="75" cy="75" r="55" transform="matrix(-1 0 0 1 2430.89 2429.36)" stroke="url(#paint17_linear_44_389)" stroke-width="40"/>
<path d="M1060.59 482.353C1453.41 464.671 1737.09 556.853 1777.09 565.353" stroke="url(#paint18_linear_44_389)" stroke-width="60" stroke-linecap="round"/>
<path d="M1342.11 2436.87C1557.42 2347.02 1668.82 2161.69 1672.61 1868.37" stroke="url(#paint19_linear_44_389)" stroke-width="60" stroke-linecap="round"/>
<path d="M1497.99 1653.13L1510.25 1625.75L1455.5 1601.22L1443.23 1628.6L1497.99 1653.13ZM2035.28 3131.48C2050.25 3138.57 2068.14 3132.17 2075.23 3117.2C2082.31 3102.22 2075.92 3084.33 2060.94 3077.25L2035.28 3131.48ZM1470.61 1640.86L1443.23 1628.6C1278.12 1997.14 1238.95 2287.42 1339.02 2530.61C1438.8 2773.12 1673.69 2960.33 2035.28 3131.48L2048.11 3104.36L2060.94 3077.25C1703.25 2907.94 1485.56 2729.07 1394.5 2507.78C1303.73 2287.16 1335.45 2015.91 1497.99 1653.13L1470.61 1640.86Z" fill="url(#paint20_linear_44_389)"/>
<path d="M1236.08 1550.15L1246.88 1522.16L1190.9 1500.57L1180.1 1528.55L1236.08 1550.15ZM1680.62 3065.66C1695.43 3073.1 1713.46 3067.13 1720.9 3052.32C1728.34 3037.52 1722.37 3019.49 1707.56 3012.05L1680.62 3065.66ZM1208.09 1539.35L1180.1 1528.55C1039.11 1894.04 986.902 2191.01 1061.06 2441.85C1135.64 2694.13 1335.63 2892.31 1680.62 3065.66L1694.09 3038.85L1707.56 3012.05C1369.89 2842.38 1186.53 2654.64 1118.59 2424.84C1050.23 2193.6 1096.36 1912.34 1236.08 1550.15L1208.09 1539.35Z" fill="url(#paint21_linear_44_389)"/>
<circle cx="1548.11" cy="1077.36" r="270" stroke="url(#paint22_linear_44_389)" stroke-width="60"/>
<mask id="path-25-inside-2_44_389" fill="white">
<path d="M2047.96 1452.35C1918.6 1220.66 1861.1 1102.5 1975.76 985.353H1925.76C1804.94 1147.93 1894.72 1256.82 2047.96 1452.35Z"/>
</mask>
<path d="M1975.76 985.353V925.353H2118.45L2018.64 1027.32L1975.76 985.353ZM2047.96 1452.35L2100.35 1423.1L2000.73 1489.36L2047.96 1452.35ZM1925.76 985.353L1877.6 949.564L1895.6 925.353H1925.76V985.353ZM1975.76 985.353L2018.64 1027.32C1995.38 1051.08 1983.69 1071.91 1978.26 1091.31C1972.83 1110.75 1972.39 1133.42 1978.93 1162.91C1992.84 1225.67 2034.32 1304.83 2100.35 1423.1L2047.96 1452.35L1995.57 1481.6C1932.25 1368.18 1880.29 1272.41 1861.77 1188.88C1852.1 1145.23 1850.7 1101.91 1862.69 1059.01C1874.69 1016.07 1898.81 978.195 1932.88 943.383L1975.76 985.353ZM2047.96 1452.35L2000.73 1489.36C1926.87 1395.11 1858.35 1310.26 1827.78 1227.22C1811.61 1183.28 1804.93 1137.61 1813.19 1089.29C1821.37 1041.48 1843.42 995.565 1877.6 949.564L1925.76 985.353L1973.92 1021.14C1947.7 1056.43 1935.66 1085.09 1931.48 1109.53C1927.38 1133.46 1930.07 1157.72 1940.39 1185.77C1962.82 1246.7 2015.81 1314.06 2095.18 1415.34L2047.96 1452.35ZM1925.76 985.353V925.353H1975.76V985.353V1045.35H1925.76V985.353Z" fill="url(#paint23_linear_44_389)" mask="url(#path-25-inside-2_44_389)"/>
<path d="M1845.85 1341.83C1811.48 1382.27 1769.41 1415.48 1722.07 1439.53C1674.73 1463.58 1623.08 1477.98 1570.11 1481.91C1517.14 1485.83 1463.93 1479.19 1413.56 1462.37C1363.18 1445.56 1316.66 1418.91 1276.7 1383.97C1236.74 1349.04 1204.14 1306.51 1180.79 1258.87C1157.44 1211.24 1143.81 1159.44 1140.69 1106.49C1137.57 1053.54 1145.03 1000.51 1162.62 950.464C1180.22 900.422 1207.6 854.372 1243.19 814.997" stroke="url(#paint24_linear_44_389)" stroke-width="40"/>
<path d="M1734.49 1589.49C1620.84 1630.85 1496.65 1633.24 1381.49 1596.26C1266.33 1559.29 1166.74 1485.06 1098.41 1385.26C1030.07 1285.46 996.88 1165.77 1004.05 1045.03C1011.23 924.293 1058.36 809.372 1138.03 718.367" stroke="url(#paint25_linear_44_389)" stroke-width="60"/>
<circle cx="1608.11" cy="1017.36" r="88" fill="url(#paint26_linear_44_389)"/>
<path d="M1785 947.5C1573.62 565.986 684.582 755.97 787.592 320.352" stroke="url(#paint27_linear_44_389)" stroke-width="60" stroke-linecap="round"/>
<path d="M2047.95 1129.85C1919.48 331.196 1519.38 854.866 787.593 320.353" stroke="url(#paint28_linear_44_389)" stroke-width="60" stroke-linecap="round"/>
<path d="M1848 1677L1848 2205" stroke="url(#paint29_linear_44_389)" stroke-width="60" stroke-linecap="round"/>
<path d="M1740 2439L1740 2294" stroke="url(#paint30_linear_44_389)" stroke-width="60" stroke-linecap="round"/>
<path d="M1740.11 2293.86L1848 2205.5" stroke="url(#paint31_linear_44_389)" stroke-width="60" stroke-linecap="round"/>
<circle cx="1740.11" cy="2504.36" r="55" stroke="url(#paint32_linear_44_389)" stroke-width="40"/>
<path d="M1617 449C1947.47 339.718 2136.2 339.616 2479 449" stroke="url(#paint33_linear_44_389)" stroke-width="60" stroke-linecap="round"/>
<path d="M1731.5 1590.5C1976.56 1749.29 2124 1748.81 2363 1590" stroke="url(#paint34_linear_44_389)" stroke-width="60" stroke-linecap="round"/>
<defs>
<linearGradient id="paint0_linear_44_389" x1="603" y1="3475" x2="3493" y2="3475" gradientUnits="userSpaceOnUse">
<stop stop-color="#F72585"/>
<stop offset="0.25" stop-color="#AE16A1"/>
<stop offset="0.5" stop-color="#4895EF"/>
<stop offset="0.75" stop-color="#AE16A1"/>
<stop offset="1" stop-color="#F72585"/>
</linearGradient>
<linearGradient id="paint1_linear_44_389" x1="1972" y1="2651" x2="2122" y2="2651" gradientUnits="userSpaceOnUse">
<stop stop-color="#4786EF"/>
<stop offset="0.299541" stop-color="#488EEF"/>
<stop offset="0.5045" stop-color="#4A95EF"/>
<stop offset="0.699097" stop-color="#488EEF"/>
<stop offset="1" stop-color="#4786EF"/>
</linearGradient>
<linearGradient id="paint2_linear_44_389" x1="2077" y1="1760.5" x2="2017" y2="1760.5" gradientUnits="userSpaceOnUse">
<stop stop-color="#488EEF"/>
<stop offset="0.5" stop-color="#4995EF"/>
<stop offset="1" stop-color="#488EEF"/>
</linearGradient>
<linearGradient id="paint3_linear_44_389" x1="3035.41" y1="522.729" x2="2318.91" y2="522.729" gradientUnits="userSpaceOnUse">
<stop stop-color="#D61F92"/>
<stop offset="0.214442" stop-color="#C41A98"/>
<stop offset="0.5" stop-color="#A113A6"/>
<stop offset="1" stop-color="#7209B7"/>
</linearGradient>
<linearGradient id="paint4_linear_44_389" x1="2753.89" y1="2254.23" x2="2437.89" y2="2254.23" gradientUnits="userSpaceOnUse">
<stop stop-color="#A414A4"/>
<stop offset="0.5" stop-color="#830DB1"/>
<stop offset="1" stop-color="#6430CB"/>
</linearGradient>
<linearGradient id="paint5_linear_44_389" x1="2813" y1="3155.98" x2="2047.39" y2="3155.98" gradientUnits="userSpaceOnUse">
<stop stop-color="#B2169F"/>
<stop offset="0.148366" stop-color="#9610A9"/>
<stop offset="0.195718" stop-color="#8F10AC"/>
<stop offset="0.274639" stop-color="#820CB1"/>
<stop offset="0.5" stop-color="#5B3BD3"/>
<stop offset="0.945789" stop-color="#4896EF"/>
<stop offset="1" stop-color="#4896EF"/>
</linearGradient>
<linearGradient id="paint6_linear_44_389" x1="3058.5" y1="1645.5" x2="2373" y2="1645.5" gradientUnits="userSpaceOnUse">
<stop stop-color="#CE1D96"/>
<stop offset="0.166224" stop-color="#C11A9A"/>
<stop offset="0.22" stop-color="#BE199A"/>
<stop offset="0.273145" stop-color="#BC189C"/>
<stop offset="0.5" stop-color="#9B12A7"/>
<stop offset="0.75" stop-color="#7816B9"/>
<stop offset="1" stop-color="#5A40D5"/>
</linearGradient>
<linearGradient id="paint7_linear_44_389" x1="0" y1="300" x2="600" y2="300" gradientUnits="userSpaceOnUse">
<stop stop-color="#B8189D"/>
<stop offset="0.25" stop-color="#9D12A6"/>
<stop offset="0.5" stop-color="#780BB5"/>
<stop offset="0.75" stop-color="#5C2BCA"/>
<stop offset="1" stop-color="#4361EE"/>
</linearGradient>
<linearGradient id="paint8_linear_44_389" x1="2133.47" y1="985.353" x2="2133.47" y2="1452.35" gradientUnits="userSpaceOnUse">
<stop stop-color="#4361EE"/>
<stop offset="1" stop-color="#4895EF"/>
</linearGradient>
<linearGradient id="paint9_linear_44_389" x1="2976" y1="1083" x2="2135" y2="1083" gradientUnits="userSpaceOnUse">
<stop stop-color="#C91C96"/>
<stop offset="0.25" stop-color="#AB15A1"/>
<stop offset="0.5" stop-color="#760EB7"/>
<stop offset="0.75" stop-color="#4F47DC"/>
<stop offset="1" stop-color="#4D86E9"/>
</linearGradient>
<linearGradient id="paint10_linear_44_389" x1="3122.91" y1="1234.35" x2="2046.41" y2="1234.35" gradientUnits="userSpaceOnUse">
<stop stop-color="#D61F92"/>
<stop offset="0.25" stop-color="#BB189C"/>
<stop offset="0.5" stop-color="#7F0CB2"/>
<stop offset="0.75" stop-color="#4E4BDF"/>
<stop offset="1" stop-color="#4895EF"/>
</linearGradient>
<linearGradient id="paint11_linear_44_389" x1="0" y1="88" x2="176" y2="88" gradientUnits="userSpaceOnUse">
<stop stop-color="#7D0CB3"/>
<stop offset="0.5" stop-color="#6A16BF"/>
<stop offset="1" stop-color="#5931CE"/>
</linearGradient>
<linearGradient id="paint12_linear_44_389" x1="3707.74" y1="642.968" x2="2236.01" y2="642.968" gradientUnits="userSpaceOnUse">
<stop offset="0.252006" stop-color="#F72585"/>
<stop offset="0.629037" stop-color="#B5179E"/>
<stop offset="0.802924" stop-color="#7209B7"/>
<stop offset="0.84597" stop-color="#681EC1"/>
<stop offset="0.87631" stop-color="#5F28C8"/>
<stop offset="0.96592" stop-color="#4155E3"/>
</linearGradient>
<linearGradient id="paint13_linear_44_389" x1="3335.5" y1="559.968" x2="2042.5" y2="559.968" gradientUnits="userSpaceOnUse">
<stop stop-color="#F72585"/>
<stop offset="0.452017" stop-color="#B5179E"/>
<stop offset="0.8" stop-color="#7209B7"/>
<stop offset="0.959407" stop-color="#4895EF"/>
<stop offset="0.984416" stop-color="#4895EF"/>
<stop offset="1" stop-color="#4895EF"/>
</linearGradient>
<linearGradient id="paint14_linear_44_389" x1="2218.1" y1="1715.22" x2="2277.6" y2="1715.22" gradientUnits="userSpaceOnUse">
<stop stop-color="#4573EE"/>
<stop offset="0.5" stop-color="#4968E9"/>
<stop offset="1" stop-color="#4D5FE4"/>
</linearGradient>
<linearGradient id="paint15_linear_44_389" x1="2325.5" y1="2338.08" x2="2385.5" y2="2338.08" gradientUnits="userSpaceOnUse">
<stop stop-color="#564BDA"/>
<stop offset="0.5" stop-color="#5944D7"/>
<stop offset="1" stop-color="#5C3BD3"/>
</linearGradient>
<linearGradient id="paint16_linear_44_389" x1="2220" y1="2249.36" x2="2385.5" y2="2249.36" gradientUnits="userSpaceOnUse">
<stop stop-color="#4573ED"/>
<stop offset="0.351213" stop-color="#4D5EE4"/>
<stop offset="0.5" stop-color="#5351DD"/>
<stop offset="1" stop-color="#5C3BD3"/>
</linearGradient>
<linearGradient id="paint17_linear_44_389" x1="0" y1="75" x2="150" y2="75" gradientUnits="userSpaceOnUse">
<stop stop-color="#632FCB"/>
<stop offset="0.280606" stop-color="#5D3CD3"/>
<stop offset="0.387505" stop-color="#5B3ED4"/>
<stop offset="0.5" stop-color="#5A45D8"/>
<stop offset="0.612458" stop-color="#5748D9"/>
<stop offset="0.715891" stop-color="#564AD9"/>
<stop offset="1" stop-color="#4E5AE2"/>
</linearGradient>
<linearGradient id="paint18_linear_44_389" x1="1060.59" y1="522.729" x2="1777.09" y2="522.729" gradientUnits="userSpaceOnUse">
<stop stop-color="#D51E92"/>
<stop offset="0.0923915" stop-color="#CE1C95"/>
<stop offset="0.213636" stop-color="#C41A98"/>
<stop offset="0.5" stop-color="#A113A6"/>
<stop offset="1" stop-color="#7209B7"/>
</linearGradient>
<linearGradient id="paint19_linear_44_389" x1="1342.11" y1="2254.23" x2="1658.11" y2="2254.23" gradientUnits="userSpaceOnUse">
<stop stop-color="#A414A4"/>
<stop offset="0.5" stop-color="#830DB1"/>
<stop offset="1" stop-color="#6430CB"/>
</linearGradient>
<linearGradient id="paint20_linear_44_389" x1="1283" y1="3155.98" x2="2048.61" y2="3155.98" gradientUnits="userSpaceOnUse">
<stop stop-color="#B2169F"/>
<stop offset="0.148366" stop-color="#9610A9"/>
<stop offset="0.195718" stop-color="#8F10AC"/>
<stop offset="0.274639" stop-color="#820CB1"/>
<stop offset="0.5" stop-color="#5B3BD3"/>
<stop offset="1" stop-color="#4896EF"/>
</linearGradient>
<linearGradient id="paint21_linear_44_389" x1="1037.5" y1="1645.5" x2="1723" y2="1645.5" gradientUnits="userSpaceOnUse">
<stop stop-color="#CE1D96"/>
<stop offset="0.175899" stop-color="#C11A9A"/>
<stop offset="0.219998" stop-color="#BF199B"/>
<stop offset="0.276304" stop-color="#BD189B"/>
<stop offset="0.5" stop-color="#9B12A7"/>
<stop offset="0.75" stop-color="#7816B9"/>
<stop offset="1" stop-color="#5A40D5"/>
</linearGradient>
<linearGradient id="paint22_linear_44_389" x1="1248.11" y1="1077.36" x2="1848.11" y2="1077.36" gradientUnits="userSpaceOnUse">
<stop stop-color="#B8189D"/>
<stop offset="0.25" stop-color="#9D12A6"/>
<stop offset="0.5" stop-color="#780BB5"/>
<stop offset="0.75" stop-color="#5C2BCA"/>
<stop offset="1" stop-color="#4361EE"/>
</linearGradient>
<linearGradient id="paint23_linear_44_389" x1="1962.53" y1="985.353" x2="1962.53" y2="1452.35" gradientUnits="userSpaceOnUse">
<stop stop-color="#4361EE"/>
<stop offset="1" stop-color="#4895EF"/>
</linearGradient>
<linearGradient id="paint24_linear_44_389" x1="1120" y1="1083" x2="1961" y2="1083" gradientUnits="userSpaceOnUse">
<stop stop-color="#C91C96"/>
<stop offset="0.25" stop-color="#AB15A1"/>
<stop offset="0.5" stop-color="#760EB7"/>
<stop offset="0.75" stop-color="#4F47DC"/>
<stop offset="1" stop-color="#4D86E9"/>
</linearGradient>
<linearGradient id="paint25_linear_44_389" x1="973.094" y1="1234.35" x2="2049.59" y2="1234.35" gradientUnits="userSpaceOnUse">
<stop stop-color="#D61F92"/>
<stop offset="0.25" stop-color="#BB189C"/>
<stop offset="0.5" stop-color="#7F0CB2"/>
<stop offset="0.75" stop-color="#4E4BDF"/>
<stop offset="1" stop-color="#4895EF"/>
</linearGradient>
<linearGradient id="paint26_linear_44_389" x1="1520.11" y1="1017.36" x2="1696.11" y2="1017.36" gradientUnits="userSpaceOnUse">
<stop stop-color="#7D0CB3"/>
<stop offset="0.5" stop-color="#6A16BF"/>
<stop offset="1" stop-color="#5931CE"/>
</linearGradient>
<linearGradient id="paint27_linear_44_389" x1="388.258" y1="642.968" x2="1859.99" y2="642.968" gradientUnits="userSpaceOnUse">
<stop offset="0.252006" stop-color="#F72585"/>
<stop offset="0.629037" stop-color="#B5179E"/>
<stop offset="0.802924" stop-color="#7209B7"/>
<stop offset="0.849953" stop-color="#6421C4"/>
<stop offset="0.877431" stop-color="#5E29C9"/>
<stop offset="0.96592" stop-color="#4155E3"/>
</linearGradient>
<linearGradient id="paint28_linear_44_389" x1="760.5" y1="559.968" x2="2053.5" y2="559.968" gradientUnits="userSpaceOnUse">
<stop stop-color="#F72585"/>
<stop offset="0.452017" stop-color="#B5179E"/>
<stop offset="0.8" stop-color="#7209B7"/>
<stop offset="1" stop-color="#4895EF"/>
</linearGradient>
<linearGradient id="paint29_linear_44_389" x1="1877.9" y1="1715.22" x2="1818.4" y2="1715.22" gradientUnits="userSpaceOnUse">
<stop stop-color="#4574EE"/>
<stop offset="0.5" stop-color="#486BEA"/>
<stop offset="1" stop-color="#4C60E5"/>
</linearGradient>
<linearGradient id="paint30_linear_44_389" x1="1770.5" y1="2338.08" x2="1710.5" y2="2338.08" gradientUnits="userSpaceOnUse">
<stop stop-color="#564BDA"/>
<stop offset="0.5" stop-color="#5944D7"/>
<stop offset="1" stop-color="#5C3BD3"/>
</linearGradient>
<linearGradient id="paint31_linear_44_389" x1="1710.5" y1="2249.36" x2="1876" y2="2249.36" gradientUnits="userSpaceOnUse">
<stop stop-color="#5B3BD3"/>
<stop offset="0.5" stop-color="#5351DD"/>
<stop offset="0.645287" stop-color="#4C5EE5"/>
<stop offset="0.801034" stop-color="#476AE9"/>
<stop offset="1" stop-color="#4574EE"/>
</linearGradient>
<linearGradient id="paint32_linear_44_389" x1="1665.11" y1="2504.36" x2="1815.11" y2="2504.36" gradientUnits="userSpaceOnUse">
<stop stop-color="#632FCB"/>
<stop offset="0.280606" stop-color="#5D3CD3"/>
<stop offset="0.387505" stop-color="#5B3ED4"/>
<stop offset="0.5" stop-color="#5A45D8"/>
<stop offset="0.612458" stop-color="#5748D9"/>
<stop offset="0.715891" stop-color="#564AD9"/>
<stop offset="1" stop-color="#4E5AE2"/>
</linearGradient>
<linearGradient id="paint33_linear_44_389" x1="1617" y1="408" x2="2479" y2="408" gradientUnits="userSpaceOnUse">
<stop stop-color="#9110AB"/>
<stop offset="0.25" stop-color="#7209B7"/>
<stop offset="0.5" stop-color="#4895EF"/>
<stop offset="0.75" stop-color="#7209B7"/>
<stop offset="1" stop-color="#9110AB"/>
</linearGradient>
<linearGradient id="paint34_linear_44_389" x1="1700" y1="1665.4" x2="2391.5" y2="1665.4" gradientUnits="userSpaceOnUse">
<stop stop-color="#5D38D1"/>
<stop offset="0.25" stop-color="#4573EE"/>
<stop offset="0.5" stop-color="#4895EF"/>
<stop offset="0.75" stop-color="#4573EE"/>
<stop offset="1" stop-color="#5C38D2"/>
</linearGradient>
</defs>
</svg>
