<svg width="9216" height="4096" viewBox="0 0 9216 4096" fill="none" xmlns="http://www.w3.org/2000/svg">
<path d="M5599.8 2161.4C5673 2161.4 5734.8 2171 5785.2 2190.2C5791.2 2193.8 5795.4 2196.8 5797.8 2199.2C5801.4 2201.6 5802.6 2205.8 5801.4 2211.8L5783.4 2280.2C5782.2 2286.2 5779.8 2289.8 5776.2 2291C5773.8 2292.2 5769.6 2291.6 5763.6 2289.2C5742 2282 5718.6 2277.2 5693.4 2274.8C5668.2 2271.2 5644.8 2269.4 5623.2 2269.4C5604 2269.4 5584.2 2271.2 5563.8 2274.8C5543.4 2278.4 5524.8 2282.6 5508 2287.4C5492.4 2291 5480.4 2294.6 5472 2298.2C5467.2 2301.8 5461.2 2306 5454 2310.8C5446.8 2315.6 5443.2 2326.4 5443.2 2343.2V3000.2C5443.2 3008.6 5442 3014 5439.6 3016.4C5437.2 3018.8 5433 3020 5427 3020H5329.8C5326.2 3020 5322.6 3018.8 5319 3016.4C5316.6 3014 5315.4 3009.8 5315.4 3003.8V2267.6C5315.4 2249.6 5317.8 2237.6 5322.6 2231.6C5327.4 2225.6 5334.6 2220.2 5344.2 2215.4C5380.2 2198.6 5422.2 2185.4 5470.2 2175.8C5518.2 2166.2 5561.4 2161.4 5599.8 2161.4ZM6066.27 1936.4C6066.27 1958 6061.47 1974.8 6051.87 1986.8C6043.47 1997.6 6024.27 2003 5994.27 2003C5965.47 2003 5945.67 1997.6 5934.87 1986.8C5925.27 1974.8 5920.47 1958 5920.47 1936.4C5920.47 1916 5925.27 1900.4 5934.87 1889.6C5945.67 1877.6 5965.47 1871.6 5994.27 1871.6C6025.47 1871.6 6045.27 1877.6 6053.67 1889.6C6062.07 1900.4 6066.27 1916 6066.27 1936.4ZM6059.07 3007.4C6059.07 3015.8 6054.27 3020 6044.67 3020H5943.87C5935.47 3020 5931.27 3015.8 5931.27 3007.4V2183C5931.27 2174.6 5935.47 2170.4 5943.87 2170.4H6044.67C6054.27 2170.4 6059.07 2174.6 6059.07 2183V3007.4ZM6572.33 3020C6497.93 3020 6442.73 3004.4 6406.73 2973.2C6370.73 2940.8 6347.33 2895.8 6336.53 2838.2C6325.73 2787.8 6320.33 2735 6320.33 2679.8C6320.33 2623.4 6320.33 2565.8 6320.33 2507C6320.33 2466.2 6320.33 2427.2 6320.33 2390C6321.53 2352.8 6323.33 2315 6325.73 2276.6C6325.73 2265.8 6320.93 2260.4 6311.33 2260.4H6219.53C6214.73 2260.4 6211.13 2259.2 6208.73 2256.8C6206.33 2254.4 6205.13 2250.8 6205.13 2246V2184.8C6205.13 2180 6206.33 2176.4 6208.73 2174C6211.13 2171.6 6215.33 2170.4 6221.33 2170.4H6313.13C6319.13 2170.4 6323.33 2169.2 6325.73 2166.8C6328.13 2163.2 6329.33 2157.2 6329.33 2148.8L6338.33 1995.8C6338.33 1987.4 6341.93 1983.2 6349.13 1983.2H6449.93C6453.53 1983.2 6456.53 1984.4 6458.93 1986.8C6462.53 1989.2 6464.33 1992.2 6464.33 1995.8L6457.13 2148.8C6455.93 2157.2 6455.93 2163.2 6457.13 2166.8C6459.53 2169.2 6463.73 2170.4 6469.73 2170.4H6680.33C6686.33 2170.4 6689.93 2171.6 6691.13 2174C6693.53 2175.2 6694.73 2179.4 6694.73 2186.6V2244.2C6694.73 2249 6693.53 2253.2 6691.13 2256.8C6688.73 2259.2 6684.53 2260.4 6678.53 2260.4H6469.73C6464.93 2260.4 6460.73 2262.2 6457.13 2265.8C6453.53 2268.2 6451.73 2273 6451.73 2280.2C6450.53 2318.6 6449.33 2357.6 6448.13 2397.2C6446.93 2436.8 6446.33 2477 6446.33 2517.8C6446.33 2567 6446.33 2617.4 6446.33 2669C6447.53 2719.4 6453.53 2768.6 6464.33 2816.6C6471.53 2850.2 6484.73 2875.4 6503.93 2892.2C6524.33 2909 6555.53 2917.4 6597.53 2917.4C6614.33 2917.4 6631.13 2915.6 6647.93 2912C6664.73 2907.2 6681.53 2902.4 6698.33 2897.6C6706.73 2892.8 6712.13 2891 6714.53 2892.2C6716.93 2893.4 6719.33 2897.6 6721.73 2904.8L6741.53 2964.2C6743.93 2971.4 6742.73 2976.8 6737.93 2980.4C6734.33 2984 6726.53 2988.8 6714.53 2994.8C6701.33 2999.6 6685.13 3004.4 6665.93 3009.2C6647.93 3012.8 6630.53 3015.8 6613.73 3018.2C6596.93 3019.4 6583.13 3020 6572.33 3020ZM6857 3007.4C6857 2798.6 6857 2590.4 6857 2382.8C6857 2175.2 6857 1967 6857 1758.2C6857 1749.8 6861.8 1745.6 6871.4 1745.6C6888.2 1745.6 6905 1745.6 6921.8 1745.6C6939.8 1745.6 6956.6 1745.6 6972.2 1745.6C6981.8 1745.6 6986.6 1749.8 6986.6 1758.2C6986.6 1827.8 6986.6 1898 6986.6 1968.8C6986.6 2038.4 6986.6 2107.4 6986.6 2175.8C6986.6 2184.2 6987.8 2189.6 6990.2 2192C6993.8 2194.4 6999.2 2194.4 7006.4 2192C7032.8 2184.8 7062.2 2178.2 7094.6 2172.2C7128.2 2165 7161.8 2161.4 7195.4 2161.4C7239.8 2161.4 7280.6 2168.6 7317.8 2183C7356.2 2196.2 7389.2 2219 7416.8 2251.4C7444.4 2283.8 7466 2328.2 7481.6 2384.6C7497.2 2439.8 7505.6 2510 7506.8 2595.2C7506.8 2642 7505.6 2690 7503.2 2739.2C7502 2788.4 7499.6 2836.4 7496 2883.2C7492.4 2928.8 7488.2 2970.2 7483.4 3007.4C7483.4 3012.2 7481.6 3015.8 7478 3018.2C7474.4 3019.4 7469 3020 7461.8 3020C7447.4 3020 7433 3020 7418.6 3020C7405.4 3020 7391.6 3020 7377.2 3020C7366.4 3020 7359.8 3018.8 7357.4 3016.4C7356.2 3014 7356.8 3006.8 7359.2 2994.8C7365.2 2939.6 7369.4 2880.2 7371.8 2816.6C7374.2 2753 7376 2690.6 7377.2 2629.4C7377.2 2559.8 7371.8 2501.6 7361 2454.8C7351.4 2406.8 7337 2369 7317.8 2341.4C7299.8 2313.8 7278.2 2294 7253 2282C7227.8 2270 7200.2 2264 7170.2 2264C7148.6 2264 7123.4 2266.4 7094.6 2271.2C7067 2276 7040.6 2281.4 7015.4 2287.4C7007 2289.8 6999.8 2294 6993.8 2300C6989 2306 6986.6 2316.2 6986.6 2330.6V3007.4C6986.6 3015.8 6981.8 3020 6972.2 3020H6871.4C6861.8 3020 6857 3015.8 6857 3007.4ZM7728.05 3020C7718.45 3020 7713.65 3015.2 7713.65 3005.6V2262.2C7713.65 2246.6 7716.05 2235.2 7720.85 2228C7726.85 2220.8 7735.85 2214.8 7747.85 2210C7763.45 2204 7784.45 2197.4 7810.85 2190.2C7838.45 2183 7867.85 2177 7899.05 2172.2C7931.45 2166.2 7961.45 2163.2 7989.05 2163.2C8057.45 2163.2 8112.65 2174 8154.65 2195.6C8197.85 2216 8232.65 2244.2 8259.05 2280.2C8275.85 2255 8296.85 2234 8322.05 2217.2C8348.45 2200.4 8376.05 2187.2 8404.85 2177.6C8434.85 2168 8464.25 2163.2 8493.05 2163.2C8581.85 2163.2 8650.25 2181.2 8698.25 2217.2C8747.45 2253.2 8781.65 2301.8 8800.85 2363C8820.05 2423 8829.65 2490.8 8829.65 2566.4C8829.65 2627.6 8828.45 2686.4 8826.05 2742.8C8823.65 2798 8820.65 2847.8 8817.05 2892.2C8814.65 2936.6 8811.65 2974.4 8808.05 3005.6C8808.05 3011.6 8806.85 3015.8 8804.45 3018.2C8802.05 3019.4 8798.45 3020 8793.65 3020H8696.45C8690.45 3020 8686.25 3018.8 8683.85 3016.4C8682.65 3012.8 8682.05 3007.4 8682.05 3000.2C8684.45 2978.6 8686.25 2944.4 8687.45 2897.6C8689.85 2849.6 8691.65 2795.6 8692.85 2735.6C8695.25 2675.6 8696.45 2616.8 8696.45 2559.2C8696.45 2525.6 8692.85 2492 8685.65 2458.4C8679.65 2423.6 8668.85 2392.4 8653.25 2364.8C8637.65 2336 8616.65 2313.2 8590.25 2296.4C8563.85 2278.4 8530.85 2269.4 8491.25 2269.4C8444.45 2269.4 8406.05 2282 8376.05 2307.2C8347.25 2331.2 8332.85 2365.4 8332.85 2409.8C8332.85 2472.2 8332.85 2529.2 8332.85 2580.8C8334.05 2632.4 8334.65 2681 8334.65 2726.6C8334.65 2771 8334.05 2815.4 8332.85 2859.8C8332.85 2904.2 8332.85 2951.6 8332.85 3002C8332.85 3014 8326.85 3020 8314.85 3020H8219.45C8209.85 3020 8205.05 3015.2 8205.05 3005.6V2564.6C8205.05 2505.8 8198.45 2454.2 8185.25 2409.8C8172.05 2365.4 8149.85 2331.2 8118.65 2307.2C8088.65 2282 8046.05 2269.4 7990.85 2269.4C7968.05 2269.4 7946.45 2271.8 7926.05 2276.6C7905.65 2280.2 7887.05 2285 7870.25 2291C7851.05 2298.2 7841.45 2312 7841.45 2332.4V3003.8C7841.45 3014.6 7836.65 3020 7827.05 3020H7728.05Z" fill="url(#paint0_linear_44_2)"/>
<path d="M295.8 2418.8C295.8 2285.6 309 2173.4 335.4 2082.2C363 1989.8 411 1920.2 479.4 1873.4C547.8 1826.6 643.8 1803.2 767.4 1803.2C863.4 1803.2 942 1817 1003.2 1844.6C1065.6 1871 1114.2 1910 1149 1961.6C1183.8 2013.2 1207.8 2077.4 1221 2154.2C1234.2 2231 1240.8 2319.2 1240.8 2418.8C1240.8 2518.4 1234.2 2606.6 1221 2683.4C1207.8 2759 1183.8 2823.2 1149 2876C1114.2 2927.6 1065.6 2966.6 1003.2 2993C942 3019.4 863.4 3032.6 767.4 3032.6C643.8 3032.6 547.8 3009.2 479.4 2962.4C411 2915.6 363 2846.6 335.4 2755.4C309 2664.2 295.8 2552 295.8 2418.8ZM432.6 2418.8C432.6 2549.6 444 2651.6 466.8 2724.8C490.8 2796.8 526.8 2847.2 574.8 2876C624 2904.8 687 2919.2 763.8 2919.2C841.8 2919.2 905.4 2904.8 954.6 2876C1005 2847.2 1042.8 2796.8 1068 2724.8C1093.2 2652.8 1105.8 2550.8 1105.8 2418.8C1105.8 2286.8 1093.2 2184.2 1068 2111C1042.8 2037.8 1005 1986.8 954.6 1958C905.4 1928 841.8 1913 763.8 1913C687 1913 624 1928 574.8 1958C526.8 1988 490.8 2039.6 466.8 2112.8C444 2184.8 432.6 2286.8 432.6 2418.8ZM1629.47 3002C1595.87 2934.8 1564.67 2864.6 1535.87 2791.4C1507.07 2717 1481.87 2643.8 1460.27 2571.8C1438.67 2498.6 1420.07 2430.8 1404.47 2368.4C1390.07 2304.8 1379.27 2249.6 1372.07 2202.8C1369.67 2192 1369.07 2184.2 1370.27 2179.4C1372.67 2173.4 1376.87 2170.4 1382.87 2170.4H1487.27C1498.07 2170.4 1504.67 2176.4 1507.07 2188.4C1513.07 2224.4 1520.87 2267.6 1530.47 2318C1541.27 2367.2 1553.87 2418.2 1568.27 2471C1582.67 2523.8 1597.67 2575.4 1613.27 2625.8C1628.87 2675 1643.27 2719.4 1656.47 2759C1670.87 2797.4 1684.07 2826.8 1696.07 2847.2C1698.47 2854.4 1701.47 2857.4 1705.07 2856.2C1708.67 2855 1711.07 2852.6 1712.27 2849C1726.67 2826.2 1740.47 2796.2 1753.67 2759C1766.87 2721.8 1778.87 2682.8 1789.67 2642C1800.47 2600 1808.87 2561 1814.87 2525C1822.07 2489 1825.67 2460.8 1825.67 2440.4C1825.67 2426 1825.07 2407.4 1823.87 2384.6C1823.87 2360.6 1823.87 2336 1823.87 2310.8C1823.87 2285.6 1823.27 2262.2 1822.07 2240.6C1822.07 2217.8 1822.07 2200.4 1822.07 2188.4C1822.07 2176.4 1827.47 2170.4 1838.27 2170.4H1940.87C1945.67 2170.4 1949.87 2171.6 1953.47 2174C1957.07 2176.4 1958.87 2181.2 1958.87 2188.4C1958.87 2214.8 1959.47 2249.6 1960.67 2292.8C1961.87 2336 1963.07 2388.8 1964.27 2451.2C1965.47 2468 1969.07 2490.8 1975.07 2519.6C1982.27 2548.4 1991.27 2579 2002.07 2611.4C2012.87 2643.8 2023.67 2676.2 2034.47 2708.6C2046.47 2741 2057.27 2769.8 2066.87 2795C2077.67 2820.2 2086.67 2838.8 2093.87 2850.8C2098.67 2861.6 2104.07 2861.6 2110.07 2850.8C2122.07 2828 2135.27 2796.8 2149.67 2757.2C2164.07 2717.6 2178.47 2673.2 2192.87 2624C2208.47 2574.8 2222.87 2524.4 2236.07 2472.8C2249.27 2420 2260.67 2369 2270.27 2319.8C2281.07 2270.6 2289.47 2227.4 2295.47 2190.2C2296.67 2177 2304.47 2170.4 2318.87 2170.4H2410.67C2417.87 2170.4 2422.07 2172.8 2423.27 2177.6C2425.67 2182.4 2425.67 2189.6 2423.27 2199.2C2416.07 2249.6 2404.07 2309 2387.27 2377.4C2371.67 2444.6 2352.47 2516 2329.67 2591.6C2308.07 2666 2282.87 2739.2 2254.07 2811.2C2226.47 2882 2197.67 2945.6 2167.67 3002C2164.07 3009.2 2160.47 3014 2156.87 3016.4C2153.27 3018.8 2149.07 3020 2144.27 3020H2057.87C2053.07 3020 2048.87 3019.4 2045.27 3018.2C2042.87 3015.8 2039.87 3011.6 2036.27 3005.6C2020.67 2978 2004.47 2946.2 1987.67 2910.2C1972.07 2873 1957.07 2837 1942.67 2802.2C1929.47 2766.2 1919.27 2735 1912.07 2708.6C1904.87 2685.8 1895.87 2685.8 1885.07 2708.6C1880.27 2727.8 1873.67 2748.8 1865.27 2771.6C1856.87 2794.4 1847.87 2817.2 1838.27 2840C1828.67 2862.8 1819.07 2884.4 1809.47 2904.8C1801.07 2922.8 1792.07 2940.8 1782.47 2958.8C1774.07 2976.8 1766.87 2992.4 1760.87 3005.6C1758.47 3010.4 1754.87 3014 1750.07 3016.4C1746.47 3018.8 1742.27 3020 1737.47 3020H1654.67C1647.47 3020 1642.67 3019.4 1640.27 3018.2C1637.87 3015.8 1634.27 3010.4 1629.47 3002ZM2581.63 3007.4V1758.2C2581.63 1749.8 2585.83 1745.6 2594.23 1745.6H2695.03C2704.63 1745.6 2709.43 1749.8 2709.43 1758.2V3007.4C2709.43 3015.8 2704.63 3020 2695.03 3020H2594.23C2585.83 3020 2581.63 3015.8 2581.63 3007.4Z" fill="url(#paint1_linear_44_2)"/>
<circle cx="3991" cy="2960" r="55" stroke="url(#paint2_linear_44_2)" stroke-width="40"/>
<line x1="3991" y1="2895" x2="3991" y2="2048" stroke="url(#paint3_linear_44_2)" stroke-width="60" stroke-linecap="round"/>
<path d="M4979.41 791.353C4586.59 773.671 4302.91 865.853 4262.91 874.353" stroke="url(#paint4_linear_44_2)" stroke-width="60" stroke-linecap="round"/>
<path d="M4697.89 2745.87C4482.58 2656.03 4371.18 2470.69 4367.39 2177.37" stroke="url(#paint5_linear_44_2)" stroke-width="60" stroke-linecap="round"/>
<path d="M4542.01 1962.13L4529.75 1934.75L4584.5 1910.22L4596.77 1937.6L4542.01 1962.13ZM4004.72 3440.48C3989.75 3447.57 3971.86 3441.17 3964.77 3426.2C3957.69 3411.22 3964.08 3393.33 3979.06 3386.25L4004.72 3440.48ZM4569.39 1949.86L4596.77 1937.6C4761.88 2306.14 4801.05 2596.42 4700.98 2839.61C4601.2 3082.12 4366.31 3269.33 4004.72 3440.48L3991.89 3413.36L3979.06 3386.25C4336.75 3216.94 4554.44 3038.07 4645.5 2816.78C4736.27 2596.16 4704.55 2324.92 4542.01 1962.13L4569.39 1949.86Z" fill="url(#paint6_linear_44_2)"/>
<path d="M4803.92 1859.15L4793.12 1831.16L4849.1 1809.57L4859.9 1837.55L4803.92 1859.15ZM4359.38 3374.66C4344.57 3382.1 4326.54 3376.13 4319.1 3361.32C4311.66 3346.52 4317.63 3328.49 4332.44 3321.05L4359.38 3374.66ZM4831.91 1848.35L4859.9 1837.55C5000.89 2203.04 5053.1 2500.01 4978.94 2750.85C4904.36 3003.13 4704.37 3201.31 4359.38 3374.66L4345.91 3347.85L4332.44 3321.05C4670.11 3151.38 4853.47 2963.64 4921.41 2733.84C4989.77 2502.6 4943.64 2221.34 4803.92 1859.15L4831.91 1848.35Z" fill="url(#paint7_linear_44_2)"/>
<circle cx="300" cy="300" r="270" transform="matrix(-1 0 0 1 4791.89 1086.36)" stroke="url(#paint8_linear_44_2)" stroke-width="60"/>
<mask id="path-10-inside-1_44_2" fill="white">
<path d="M3992.04 1761.35C4121.4 1529.66 4178.9 1411.5 4064.24 1294.35H4114.24C4235.06 1456.93 4145.28 1565.82 3992.04 1761.35Z"/>
</mask>
<path d="M4064.24 1294.35V1234.35H3921.55L4021.36 1336.32L4064.24 1294.35ZM3992.04 1761.35L3939.65 1732.1L4039.27 1798.36L3992.04 1761.35ZM4114.24 1294.35L4162.4 1258.56L4144.4 1234.35H4114.24V1294.35ZM4064.24 1294.35L4021.36 1336.32C4044.62 1360.08 4056.31 1380.91 4061.74 1400.31C4067.17 1419.75 4067.61 1442.42 4061.07 1471.91C4047.16 1534.67 4005.68 1613.83 3939.65 1732.1L3992.04 1761.35L4044.43 1790.6C4107.75 1677.18 4159.71 1581.41 4178.23 1497.88C4187.9 1454.23 4189.3 1410.91 4177.31 1368.01C4165.31 1325.07 4141.19 1287.19 4107.12 1252.38L4064.24 1294.35ZM3992.04 1761.35L4039.27 1798.36C4113.13 1704.11 4181.65 1619.26 4212.22 1536.22C4228.39 1492.28 4235.07 1446.61 4226.81 1398.29C4218.63 1350.48 4196.58 1304.57 4162.4 1258.56L4114.24 1294.35L4066.08 1330.14C4092.3 1365.43 4104.34 1394.09 4108.52 1418.53C4112.62 1442.46 4109.93 1466.72 4099.61 1494.77C4077.18 1555.7 4024.19 1623.06 3944.82 1724.34L3992.04 1761.35ZM4114.24 1294.35V1234.35H4064.24V1294.35V1354.35H4114.24V1294.35Z" fill="url(#paint9_linear_44_2)" mask="url(#path-10-inside-1_44_2)"/>
<path d="M4194.15 1650.83C4228.52 1691.27 4270.59 1724.48 4317.93 1748.53C4365.27 1772.58 4416.92 1786.98 4469.89 1790.91C4522.86 1794.83 4576.07 1788.19 4626.44 1771.37C4676.82 1754.56 4723.34 1727.91 4763.3 1692.97C4803.26 1658.04 4835.86 1615.51 4859.21 1567.87C4882.56 1520.24 4896.19 1468.44 4899.31 1415.49C4902.43 1362.54 4894.97 1309.51 4877.38 1259.46C4859.78 1209.42 4832.4 1163.37 4796.81 1124" stroke="url(#paint10_linear_44_2)" stroke-width="40"/>
<path d="M4305.51 1898.49C4419.16 1939.85 4543.35 1942.24 4658.51 1905.26C4773.67 1868.29 4873.26 1794.06 4941.59 1694.26C5009.93 1594.46 5043.12 1474.77 5035.95 1354.03C5028.77 1233.29 4981.64 1118.37 4901.97 1027.37" stroke="url(#paint11_linear_44_2)" stroke-width="60"/>
<circle cx="88" cy="88" r="88" transform="matrix(-1 0 0 1 4640.09 1238.36)" fill="url(#paint12_linear_44_2)"/>
<path d="M4255 1256.5C4466.38 874.986 5355.42 1064.97 5252.41 629.353" stroke="url(#paint13_linear_44_2)" stroke-width="60" stroke-linecap="round"/>
<path d="M3992.05 1438.85C4120.52 640.196 4520.62 1163.87 5252.41 629.353" stroke="url(#paint14_linear_44_2)" stroke-width="60" stroke-linecap="round"/>
<path d="M4192 1986L4192 2514" stroke="url(#paint15_linear_44_2)" stroke-width="60" stroke-linecap="round"/>
<path d="M4300 2748L4300 2603" stroke="url(#paint16_linear_44_2)" stroke-width="60" stroke-linecap="round"/>
<path d="M4299.89 2602.86L4192 2514.5" stroke="url(#paint17_linear_44_2)" stroke-width="60" stroke-linecap="round"/>
<circle cx="75" cy="75" r="55" transform="matrix(-1 0 0 1 4374.89 2738.36)" stroke="url(#paint18_linear_44_2)" stroke-width="40"/>
<path d="M3004.59 791.353C3397.41 773.671 3681.09 865.853 3721.09 874.353" stroke="url(#paint19_linear_44_2)" stroke-width="60" stroke-linecap="round"/>
<path d="M3286.11 2745.87C3501.42 2656.03 3612.83 2470.69 3616.61 2177.37" stroke="url(#paint20_linear_44_2)" stroke-width="60" stroke-linecap="round"/>
<path d="M3441.99 1962.13L3454.25 1934.75L3399.5 1910.22L3387.23 1937.6L3441.99 1962.13ZM3979.28 3440.48C3994.25 3447.57 4012.14 3441.17 4019.23 3426.2C4026.32 3411.22 4019.92 3393.33 4004.95 3386.25L3979.28 3440.48ZM3414.61 1949.86L3387.23 1937.6C3222.12 2306.14 3182.95 2596.42 3283.02 2839.61C3382.8 3082.12 3617.69 3269.33 3979.28 3440.48L3992.11 3413.36L4004.95 3386.25C3647.25 3216.94 3429.56 3038.07 3338.51 2816.78C3247.73 2596.16 3279.46 2324.92 3441.99 1962.13L3414.61 1949.86Z" fill="url(#paint21_linear_44_2)"/>
<path d="M3180.08 1859.15L3190.88 1831.16L3134.9 1809.57L3124.1 1837.55L3180.08 1859.15ZM3624.62 3374.66C3639.43 3382.1 3657.46 3376.13 3664.9 3361.32C3672.34 3346.52 3666.37 3328.49 3651.56 3321.05L3624.62 3374.66ZM3152.09 1848.35L3124.1 1837.55C2983.11 2203.04 2930.9 2500.01 3005.06 2750.85C3079.64 3003.13 3279.63 3201.31 3624.62 3374.66L3638.09 3347.85L3651.56 3321.05C3313.89 3151.38 3130.53 2963.64 3062.59 2733.84C2994.23 2502.6 3040.36 2221.34 3180.08 1859.15L3152.09 1848.35Z" fill="url(#paint22_linear_44_2)"/>
<circle cx="3492.11" cy="1386.36" r="270" stroke="url(#paint23_linear_44_2)" stroke-width="60"/>
<mask id="path-26-inside-2_44_2" fill="white">
<path d="M3991.96 1761.35C3862.6 1529.66 3805.1 1411.5 3919.76 1294.35H3869.76C3748.94 1456.93 3838.72 1565.82 3991.96 1761.35Z"/>
</mask>
<path d="M3919.76 1294.35V1234.35H4062.45L3962.64 1336.32L3919.76 1294.35ZM3991.96 1761.35L4044.35 1732.1L3944.73 1798.36L3991.96 1761.35ZM3869.76 1294.35L3821.6 1258.56L3839.6 1234.35H3869.76V1294.35ZM3919.76 1294.35L3962.64 1336.32C3939.38 1360.08 3927.69 1380.91 3922.26 1400.31C3916.83 1419.75 3916.39 1442.42 3922.93 1471.91C3936.84 1534.67 3978.32 1613.83 4044.35 1732.1L3991.96 1761.35L3939.57 1790.6C3876.25 1677.18 3824.29 1581.41 3805.77 1497.88C3796.1 1454.23 3794.7 1410.91 3806.69 1368.01C3818.69 1325.07 3842.81 1287.19 3876.88 1252.38L3919.76 1294.35ZM3991.96 1761.35L3944.73 1798.36C3870.87 1704.11 3802.35 1619.26 3771.78 1536.22C3755.61 1492.28 3748.93 1446.61 3757.19 1398.29C3765.37 1350.48 3787.42 1304.57 3821.6 1258.56L3869.76 1294.35L3917.92 1330.14C3891.7 1365.43 3879.66 1394.09 3875.48 1418.53C3871.38 1442.46 3874.07 1466.72 3884.39 1494.77C3906.82 1555.7 3959.81 1623.06 4039.18 1724.34L3991.96 1761.35ZM3869.76 1294.35V1234.35H3919.76V1294.35V1354.35H3869.76V1294.35Z" fill="url(#paint24_linear_44_2)" mask="url(#path-26-inside-2_44_2)"/>
<path d="M3789.85 1650.83C3755.48 1691.27 3713.41 1724.48 3666.07 1748.53C3618.73 1772.58 3567.08 1786.98 3514.11 1790.91C3461.14 1794.83 3407.93 1788.19 3357.56 1771.37C3307.18 1754.56 3260.66 1727.91 3220.7 1692.97C3180.74 1658.04 3148.14 1615.51 3124.79 1567.87C3101.44 1520.24 3087.81 1468.44 3084.69 1415.49C3081.57 1362.54 3089.03 1309.51 3106.62 1259.46C3124.22 1209.42 3151.6 1163.37 3187.19 1124" stroke="url(#paint25_linear_44_2)" stroke-width="40"/>
<path d="M3678.49 1898.49C3564.84 1939.85 3440.65 1942.24 3325.49 1905.26C3210.33 1868.29 3110.74 1794.06 3042.41 1694.26C2974.07 1594.46 2940.88 1474.77 2948.05 1354.03C2955.23 1233.29 3002.36 1118.37 3082.03 1027.37" stroke="url(#paint26_linear_44_2)" stroke-width="60"/>
<circle cx="3552.11" cy="1326.36" r="88" fill="url(#paint27_linear_44_2)"/>
<path d="M3729 1256.5C3517.62 874.986 2628.58 1064.97 2731.59 629.353" stroke="url(#paint28_linear_44_2)" stroke-width="60" stroke-linecap="round"/>
<path d="M3991.95 1438.85C3863.48 640.196 3463.38 1163.87 2731.59 629.353" stroke="url(#paint29_linear_44_2)" stroke-width="60" stroke-linecap="round"/>
<path d="M3792 1986L3792 2514" stroke="url(#paint30_linear_44_2)" stroke-width="60" stroke-linecap="round"/>
<path d="M3684.01 2748L3684.01 2603" stroke="url(#paint31_linear_44_2)" stroke-width="60" stroke-linecap="round"/>
<path d="M3684.11 2602.86L3792 2514.5" stroke="url(#paint32_linear_44_2)" stroke-width="60" stroke-linecap="round"/>
<circle cx="3684.11" cy="2813.36" r="55" stroke="url(#paint33_linear_44_2)" stroke-width="40"/>
<path d="M3561 758C3891.47 648.718 4080.2 648.616 4423 758" stroke="url(#paint34_linear_44_2)" stroke-width="60" stroke-linecap="round"/>
<path d="M3675.5 1899.5C3920.56 2058.29 4068 2057.81 4307 1899" stroke="url(#paint35_linear_44_2)" stroke-width="60" stroke-linecap="round"/>
<defs>
<linearGradient id="paint0_linear_44_2" x1="7076.5" y1="1400" x2="7076.5" y2="3416" gradientUnits="userSpaceOnUse">
<stop stop-color="#F72585" stop-opacity="0.5"/>
<stop offset="0.5" stop-color="#7209B7"/>
<stop offset="1" stop-color="#4895EF"/>
</linearGradient>
<linearGradient id="paint1_linear_44_2" x1="1516.5" y1="1400" x2="1516.5" y2="3416" gradientUnits="userSpaceOnUse">
<stop stop-color="#F72585" stop-opacity="0.5"/>
<stop offset="0.5" stop-color="#7209B7"/>
<stop offset="1" stop-color="#4895EF"/>
</linearGradient>
<linearGradient id="paint2_linear_44_2" x1="3916" y1="2960" x2="4066" y2="2960" gradientUnits="userSpaceOnUse">
<stop stop-color="#4786EF"/>
<stop offset="0.299541" stop-color="#488EEF"/>
<stop offset="0.5045" stop-color="#4A95EF"/>
<stop offset="0.699097" stop-color="#488EEF"/>
<stop offset="1" stop-color="#4786EF"/>
</linearGradient>
<linearGradient id="paint3_linear_44_2" x1="4021" y1="2069.5" x2="3961" y2="2069.5" gradientUnits="userSpaceOnUse">
<stop stop-color="#488EEF"/>
<stop offset="0.5" stop-color="#4995EF"/>
<stop offset="1" stop-color="#488EEF"/>
</linearGradient>
<linearGradient id="paint4_linear_44_2" x1="4979.41" y1="831.729" x2="4262.91" y2="831.729" gradientUnits="userSpaceOnUse">
<stop stop-color="#D61F92"/>
<stop offset="0.214442" stop-color="#C41A98"/>
<stop offset="0.5" stop-color="#A113A6"/>
<stop offset="1" stop-color="#7209B7"/>
</linearGradient>
<linearGradient id="paint5_linear_44_2" x1="4697.89" y1="2563.23" x2="4381.89" y2="2563.23" gradientUnits="userSpaceOnUse">
<stop stop-color="#A414A4"/>
<stop offset="0.5" stop-color="#830DB1"/>
<stop offset="1" stop-color="#6430CB"/>
</linearGradient>
<linearGradient id="paint6_linear_44_2" x1="4757" y1="3464.98" x2="3991.39" y2="3464.98" gradientUnits="userSpaceOnUse">
<stop stop-color="#B2169F"/>
<stop offset="0.148366" stop-color="#9610A9"/>
<stop offset="0.195718" stop-color="#8F10AC"/>
<stop offset="0.274639" stop-color="#820CB1"/>
<stop offset="0.5" stop-color="#5B3BD3"/>
<stop offset="0.945789" stop-color="#4896EF"/>
<stop offset="1" stop-color="#4896EF"/>
</linearGradient>
<linearGradient id="paint7_linear_44_2" x1="5002.5" y1="1954.5" x2="4317" y2="1954.5" gradientUnits="userSpaceOnUse">
<stop stop-color="#CE1D96"/>
<stop offset="0.166224" stop-color="#C11A9A"/>
<stop offset="0.22" stop-color="#BE199A"/>
<stop offset="0.273145" stop-color="#BC189C"/>
<stop offset="0.5" stop-color="#9B12A7"/>
<stop offset="0.75" stop-color="#7816B9"/>
<stop offset="1" stop-color="#5A40D5"/>
</linearGradient>
<linearGradient id="paint8_linear_44_2" x1="0" y1="300" x2="600" y2="300" gradientUnits="userSpaceOnUse">
<stop stop-color="#B8189D"/>
<stop offset="0.25" stop-color="#9D12A6"/>
<stop offset="0.5" stop-color="#780BB5"/>
<stop offset="0.75" stop-color="#5C2BCA"/>
<stop offset="1" stop-color="#4361EE"/>
</linearGradient>
<linearGradient id="paint9_linear_44_2" x1="4077.47" y1="1294.35" x2="4077.47" y2="1761.35" gradientUnits="userSpaceOnUse">
<stop stop-color="#4361EE"/>
<stop offset="1" stop-color="#4895EF"/>
</linearGradient>
<linearGradient id="paint10_linear_44_2" x1="4920" y1="1392" x2="4079" y2="1392" gradientUnits="userSpaceOnUse">
<stop stop-color="#C91C96"/>
<stop offset="0.25" stop-color="#AB15A1"/>
<stop offset="0.5" stop-color="#760EB7"/>
<stop offset="0.75" stop-color="#4F47DC"/>
<stop offset="1" stop-color="#4D86E9"/>
</linearGradient>
<linearGradient id="paint11_linear_44_2" x1="5066.91" y1="1543.35" x2="3990.41" y2="1543.35" gradientUnits="userSpaceOnUse">
<stop stop-color="#D61F92"/>
<stop offset="0.25" stop-color="#BB189C"/>
<stop offset="0.5" stop-color="#7F0CB2"/>
<stop offset="0.75" stop-color="#4E4BDF"/>
<stop offset="1" stop-color="#4895EF"/>
</linearGradient>
<linearGradient id="paint12_linear_44_2" x1="0" y1="88" x2="176" y2="88" gradientUnits="userSpaceOnUse">
<stop stop-color="#7D0CB3"/>
<stop offset="0.5" stop-color="#6A16BF"/>
<stop offset="1" stop-color="#5931CE"/>
</linearGradient>
<linearGradient id="paint13_linear_44_2" x1="5651.74" y1="951.968" x2="4180.01" y2="951.968" gradientUnits="userSpaceOnUse">
<stop offset="0.252006" stop-color="#F72585"/>
<stop offset="0.629037" stop-color="#B5179E"/>
<stop offset="0.802924" stop-color="#7209B7"/>
<stop offset="0.84597" stop-color="#681EC1"/>
<stop offset="0.87631" stop-color="#5F28C8"/>
<stop offset="0.96592" stop-color="#4155E3"/>
</linearGradient>
<linearGradient id="paint14_linear_44_2" x1="5279.5" y1="868.968" x2="3986.5" y2="868.968" gradientUnits="userSpaceOnUse">
<stop stop-color="#F72585"/>
<stop offset="0.452017" stop-color="#B5179E"/>
<stop offset="0.8" stop-color="#7209B7"/>
<stop offset="0.959407" stop-color="#4895EF"/>
<stop offset="0.984416" stop-color="#4895EF"/>
<stop offset="1" stop-color="#4895EF"/>
</linearGradient>
<linearGradient id="paint15_linear_44_2" x1="4162.1" y1="2024.22" x2="4221.6" y2="2024.22" gradientUnits="userSpaceOnUse">
<stop stop-color="#4573EE"/>
<stop offset="0.5" stop-color="#4968E9"/>
<stop offset="1" stop-color="#4D5FE4"/>
</linearGradient>
<linearGradient id="paint16_linear_44_2" x1="4269.5" y1="2647.08" x2="4329.5" y2="2647.08" gradientUnits="userSpaceOnUse">
<stop stop-color="#564BDA"/>
<stop offset="0.5" stop-color="#5944D7"/>
<stop offset="1" stop-color="#5C3BD3"/>
</linearGradient>
<linearGradient id="paint17_linear_44_2" x1="4164" y1="2558.36" x2="4329.5" y2="2558.36" gradientUnits="userSpaceOnUse">
<stop stop-color="#4573ED"/>
<stop offset="0.351213" stop-color="#4D5EE4"/>
<stop offset="0.5" stop-color="#5351DD"/>
<stop offset="1" stop-color="#5C3BD3"/>
</linearGradient>
<linearGradient id="paint18_linear_44_2" x1="0" y1="75" x2="150" y2="75" gradientUnits="userSpaceOnUse">
<stop stop-color="#632FCB"/>
<stop offset="0.280606" stop-color="#5D3CD3"/>
<stop offset="0.387505" stop-color="#5B3ED4"/>
<stop offset="0.5" stop-color="#5A45D8"/>
<stop offset="0.612458" stop-color="#5748D9"/>
<stop offset="0.715891" stop-color="#564AD9"/>
<stop offset="1" stop-color="#4E5AE2"/>
</linearGradient>
<linearGradient id="paint19_linear_44_2" x1="3004.59" y1="831.729" x2="3721.09" y2="831.729" gradientUnits="userSpaceOnUse">
<stop stop-color="#D51E92"/>
<stop offset="0.0923915" stop-color="#CE1C95"/>
<stop offset="0.213636" stop-color="#C41A98"/>
<stop offset="0.5" stop-color="#A113A6"/>
<stop offset="1" stop-color="#7209B7"/>
</linearGradient>
<linearGradient id="paint20_linear_44_2" x1="3286.11" y1="2563.23" x2="3602.11" y2="2563.23" gradientUnits="userSpaceOnUse">
<stop stop-color="#A414A4"/>
<stop offset="0.5" stop-color="#830DB1"/>
<stop offset="1" stop-color="#6430CB"/>
</linearGradient>
<linearGradient id="paint21_linear_44_2" x1="3227" y1="3464.98" x2="3992.61" y2="3464.98" gradientUnits="userSpaceOnUse">
<stop stop-color="#B2169F"/>
<stop offset="0.148366" stop-color="#9610A9"/>
<stop offset="0.195718" stop-color="#8F10AC"/>
<stop offset="0.274639" stop-color="#820CB1"/>
<stop offset="0.5" stop-color="#5B3BD3"/>
<stop offset="1" stop-color="#4896EF"/>
</linearGradient>
<linearGradient id="paint22_linear_44_2" x1="2981.5" y1="1954.5" x2="3667" y2="1954.5" gradientUnits="userSpaceOnUse">
<stop stop-color="#CE1D96"/>
<stop offset="0.175899" stop-color="#C11A9A"/>
<stop offset="0.219998" stop-color="#BF199B"/>
<stop offset="0.276304" stop-color="#BD189B"/>
<stop offset="0.5" stop-color="#9B12A7"/>
<stop offset="0.75" stop-color="#7816B9"/>
<stop offset="1" stop-color="#5A40D5"/>
</linearGradient>
<linearGradient id="paint23_linear_44_2" x1="3192.11" y1="1386.36" x2="3792.11" y2="1386.36" gradientUnits="userSpaceOnUse">
<stop stop-color="#B8189D"/>
<stop offset="0.25" stop-color="#9D12A6"/>
<stop offset="0.5" stop-color="#780BB5"/>
<stop offset="0.75" stop-color="#5C2BCA"/>
<stop offset="1" stop-color="#4361EE"/>
</linearGradient>
<linearGradient id="paint24_linear_44_2" x1="3906.53" y1="1294.35" x2="3906.53" y2="1761.35" gradientUnits="userSpaceOnUse">
<stop stop-color="#4361EE"/>
<stop offset="1" stop-color="#4895EF"/>
</linearGradient>
<linearGradient id="paint25_linear_44_2" x1="3064" y1="1392" x2="3905" y2="1392" gradientUnits="userSpaceOnUse">
<stop stop-color="#C91C96"/>
<stop offset="0.25" stop-color="#AB15A1"/>
<stop offset="0.5" stop-color="#760EB7"/>
<stop offset="0.75" stop-color="#4F47DC"/>
<stop offset="1" stop-color="#4D86E9"/>
</linearGradient>
<linearGradient id="paint26_linear_44_2" x1="2917.09" y1="1543.35" x2="3993.59" y2="1543.35" gradientUnits="userSpaceOnUse">
<stop stop-color="#D61F92"/>
<stop offset="0.25" stop-color="#BB189C"/>
<stop offset="0.5" stop-color="#7F0CB2"/>
<stop offset="0.75" stop-color="#4E4BDF"/>
<stop offset="1" stop-color="#4895EF"/>
</linearGradient>
<linearGradient id="paint27_linear_44_2" x1="3464.11" y1="1326.36" x2="3640.11" y2="1326.36" gradientUnits="userSpaceOnUse">
<stop stop-color="#7D0CB3"/>
<stop offset="0.5" stop-color="#6A16BF"/>
<stop offset="1" stop-color="#5931CE"/>
</linearGradient>
<linearGradient id="paint28_linear_44_2" x1="2332.26" y1="951.968" x2="3803.99" y2="951.968" gradientUnits="userSpaceOnUse">
<stop offset="0.252006" stop-color="#F72585"/>
<stop offset="0.629037" stop-color="#B5179E"/>
<stop offset="0.802924" stop-color="#7209B7"/>
<stop offset="0.849953" stop-color="#6421C4"/>
<stop offset="0.877431" stop-color="#5E29C9"/>
<stop offset="0.96592" stop-color="#4155E3"/>
</linearGradient>
<linearGradient id="paint29_linear_44_2" x1="2704.5" y1="868.968" x2="3997.5" y2="868.968" gradientUnits="userSpaceOnUse">
<stop stop-color="#F72585"/>
<stop offset="0.452017" stop-color="#B5179E"/>
<stop offset="0.8" stop-color="#7209B7"/>
<stop offset="1" stop-color="#4895EF"/>
</linearGradient>
<linearGradient id="paint30_linear_44_2" x1="3821.9" y1="2024.22" x2="3762.4" y2="2024.22" gradientUnits="userSpaceOnUse">
<stop stop-color="#4574EE"/>
<stop offset="0.5" stop-color="#486BEA"/>
<stop offset="1" stop-color="#4C60E5"/>
</linearGradient>
<linearGradient id="paint31_linear_44_2" x1="3714.5" y1="2647.08" x2="3654.5" y2="2647.08" gradientUnits="userSpaceOnUse">
<stop stop-color="#564BDA"/>
<stop offset="0.5" stop-color="#5944D7"/>
<stop offset="1" stop-color="#5C3BD3"/>
</linearGradient>
<linearGradient id="paint32_linear_44_2" x1="3654.5" y1="2558.36" x2="3820" y2="2558.36" gradientUnits="userSpaceOnUse">
<stop stop-color="#5B3BD3"/>
<stop offset="0.5" stop-color="#5351DD"/>
<stop offset="0.645287" stop-color="#4C5EE5"/>
<stop offset="0.801034" stop-color="#476AE9"/>
<stop offset="1" stop-color="#4574EE"/>
</linearGradient>
<linearGradient id="paint33_linear_44_2" x1="3609.11" y1="2813.36" x2="3759.11" y2="2813.36" gradientUnits="userSpaceOnUse">
<stop stop-color="#632FCB"/>
<stop offset="0.280606" stop-color="#5D3CD3"/>
<stop offset="0.387505" stop-color="#5B3ED4"/>
<stop offset="0.5" stop-color="#5A45D8"/>
<stop offset="0.612458" stop-color="#5748D9"/>
<stop offset="0.715891" stop-color="#564AD9"/>
<stop offset="1" stop-color="#4E5AE2"/>
</linearGradient>
<linearGradient id="paint34_linear_44_2" x1="3561" y1="717" x2="4423" y2="717" gradientUnits="userSpaceOnUse">
<stop stop-color="#9110AB"/>
<stop offset="0.25" stop-color="#7209B7"/>
<stop offset="0.5" stop-color="#4895EF"/>
<stop offset="0.75" stop-color="#7209B7"/>
<stop offset="1" stop-color="#9110AB"/>
</linearGradient>
<linearGradient id="paint35_linear_44_2" x1="3644" y1="1974.4" x2="4335.5" y2="1974.4" gradientUnits="userSpaceOnUse">
<stop stop-color="#5D38D1"/>
<stop offset="0.25" stop-color="#4573EE"/>
<stop offset="0.5" stop-color="#4895EF"/>
<stop offset="0.75" stop-color="#4573EE"/>
<stop offset="1" stop-color="#5C38D2"/>
</linearGradient>
</defs>
</svg>
